<mxfile host="app.diagrams.net" modified="2023-05-25T10:31:10.097Z" agent="Mozilla/5.0 (Windows NT 10.0; Win64; x64) AppleWebKit/537.36 (KHTML, like Gecko) Chrome/113.0.0.0 Safari/537.36" etag="Uw4aYfKLjh4Qq367Bmju" version="21.3.3" type="device">
  <diagram name="Page-1" id="6gTSaL5FSwR21PcumpWW">
    <mxGraphModel dx="1092" dy="1681" grid="1" gridSize="10" guides="1" tooltips="1" connect="1" arrows="1" fold="1" page="1" pageScale="1" pageWidth="850" pageHeight="1100" math="0" shadow="0">
      <root>
        <mxCell id="0" />
        <mxCell id="1" parent="0" />
        <mxCell id="4aMN2jq7jG9_Ze9TUyYj-1" value="" style="ellipse;whiteSpace=wrap;html=1;" parent="1" vertex="1">
          <mxGeometry x="160" y="75" width="80" height="80" as="geometry" />
        </mxCell>
        <mxCell id="4aMN2jq7jG9_Ze9TUyYj-2" value="" style="endArrow=classic;html=1;rounded=0;exitX=0.5;exitY=1;exitDx=0;exitDy=0;entryX=0.5;entryY=0;entryDx=0;entryDy=0;" parent="1" source="4aMN2jq7jG9_Ze9TUyYj-1" target="4aMN2jq7jG9_Ze9TUyYj-5" edge="1">
          <mxGeometry width="50" height="50" relative="1" as="geometry">
            <mxPoint x="199.5" y="170" as="sourcePoint" />
            <mxPoint x="199.5" y="240" as="targetPoint" />
          </mxGeometry>
        </mxCell>
        <mxCell id="4aMN2jq7jG9_Ze9TUyYj-3" value="The process (step) that a student takes to come to &lt;br&gt;the class room to study module Principles of SE" style="text;html=1;align=center;verticalAlign=middle;resizable=0;points=[];autosize=1;strokeColor=none;fillColor=none;" parent="1" vertex="1">
          <mxGeometry x="150" y="-20" width="290" height="40" as="geometry" />
        </mxCell>
        <mxCell id="4aMN2jq7jG9_Ze9TUyYj-4" value="Start means you start to do the task&lt;br&gt;" style="text;html=1;align=center;verticalAlign=middle;resizable=0;points=[];autosize=1;strokeColor=none;fillColor=none;" parent="1" vertex="1">
          <mxGeometry x="320" y="100" width="210" height="30" as="geometry" />
        </mxCell>
        <mxCell id="4aMN2jq7jG9_Ze9TUyYj-5" value="Get your bike" style="whiteSpace=wrap;html=1;" parent="1" vertex="1">
          <mxGeometry x="140" y="250" width="120" height="60" as="geometry" />
        </mxCell>
        <mxCell id="4aMN2jq7jG9_Ze9TUyYj-6" value="" style="edgeStyle=none;orthogonalLoop=1;jettySize=auto;html=1;rounded=0;exitX=0.5;exitY=1;exitDx=0;exitDy=0;entryX=0.5;entryY=0;entryDx=0;entryDy=0;" parent="1" source="4aMN2jq7jG9_Ze9TUyYj-5" target="4aMN2jq7jG9_Ze9TUyYj-7" edge="1">
          <mxGeometry width="100" relative="1" as="geometry">
            <mxPoint x="199.5" y="320" as="sourcePoint" />
            <mxPoint x="200" y="370" as="targetPoint" />
            <Array as="points" />
          </mxGeometry>
        </mxCell>
        <mxCell id="4aMN2jq7jG9_Ze9TUyYj-7" value="Is your bike&lt;br&gt;OK?" style="rhombus;whiteSpace=wrap;html=1;" parent="1" vertex="1">
          <mxGeometry x="155" y="380" width="90" height="80" as="geometry" />
        </mxCell>
        <mxCell id="4aMN2jq7jG9_Ze9TUyYj-8" value="" style="edgeStyle=none;orthogonalLoop=1;jettySize=auto;html=1;rounded=0;exitX=1;exitY=0.5;exitDx=0;exitDy=0;" parent="1" source="4aMN2jq7jG9_Ze9TUyYj-7" edge="1">
          <mxGeometry width="100" relative="1" as="geometry">
            <mxPoint x="265" y="419.5" as="sourcePoint" />
            <mxPoint x="400" y="420" as="targetPoint" />
            <Array as="points" />
          </mxGeometry>
        </mxCell>
        <mxCell id="4aMN2jq7jG9_Ze9TUyYj-10" value="NO" style="text;html=1;align=center;verticalAlign=middle;resizable=0;points=[];autosize=1;strokeColor=none;fillColor=none;" parent="1" vertex="1">
          <mxGeometry x="260" y="380" width="40" height="30" as="geometry" />
        </mxCell>
        <mxCell id="4aMN2jq7jG9_Ze9TUyYj-12" value="Call a Grab bike&amp;nbsp;" style="whiteSpace=wrap;html=1;" parent="1" vertex="1">
          <mxGeometry x="400" y="390" width="120" height="60" as="geometry" />
        </mxCell>
        <mxCell id="4aMN2jq7jG9_Ze9TUyYj-13" value="" style="edgeStyle=none;orthogonalLoop=1;jettySize=auto;html=1;rounded=0;exitX=0.5;exitY=1;exitDx=0;exitDy=0;" parent="1" source="4aMN2jq7jG9_Ze9TUyYj-12" edge="1">
          <mxGeometry width="100" relative="1" as="geometry">
            <mxPoint x="450" y="510" as="sourcePoint" />
            <mxPoint x="460" y="530" as="targetPoint" />
            <Array as="points" />
          </mxGeometry>
        </mxCell>
        <mxCell id="4aMN2jq7jG9_Ze9TUyYj-14" value="Ride on the bike" style="whiteSpace=wrap;html=1;" parent="1" vertex="1">
          <mxGeometry x="400" y="530" width="120" height="60" as="geometry" />
        </mxCell>
        <mxCell id="G6OJdMRR6eW8WAvbaNXZ-1" value="" style="edgeStyle=none;orthogonalLoop=1;jettySize=auto;html=1;rounded=0;" edge="1" parent="1">
          <mxGeometry width="100" relative="1" as="geometry">
            <mxPoint x="459.5" y="590" as="sourcePoint" />
            <mxPoint x="459.5" y="650" as="targetPoint" />
            <Array as="points" />
          </mxGeometry>
        </mxCell>
        <mxCell id="G6OJdMRR6eW8WAvbaNXZ-2" value="Pay for the ride" style="whiteSpace=wrap;html=1;" vertex="1" parent="1">
          <mxGeometry x="400" y="650" width="120" height="60" as="geometry" />
        </mxCell>
        <mxCell id="G6OJdMRR6eW8WAvbaNXZ-3" value="" style="edgeStyle=none;orthogonalLoop=1;jettySize=auto;html=1;rounded=0;" edge="1" parent="1">
          <mxGeometry width="100" relative="1" as="geometry">
            <mxPoint x="199.5" y="460" as="sourcePoint" />
            <mxPoint x="199.5" y="530" as="targetPoint" />
            <Array as="points" />
          </mxGeometry>
        </mxCell>
        <mxCell id="G6OJdMRR6eW8WAvbaNXZ-4" value="YES" style="text;html=1;align=center;verticalAlign=middle;resizable=0;points=[];autosize=1;strokeColor=none;fillColor=none;" vertex="1" parent="1">
          <mxGeometry x="195" y="478" width="50" height="30" as="geometry" />
        </mxCell>
        <mxCell id="G6OJdMRR6eW8WAvbaNXZ-5" value="Ride on the bike" style="whiteSpace=wrap;html=1;" vertex="1" parent="1">
          <mxGeometry x="140" y="530" width="120" height="60" as="geometry" />
        </mxCell>
        <mxCell id="G6OJdMRR6eW8WAvbaNXZ-6" value="" style="edgeStyle=none;orthogonalLoop=1;jettySize=auto;html=1;rounded=0;" edge="1" parent="1">
          <mxGeometry width="100" relative="1" as="geometry">
            <mxPoint x="199.5" y="590" as="sourcePoint" />
            <mxPoint x="199.5" y="650" as="targetPoint" />
            <Array as="points" />
          </mxGeometry>
        </mxCell>
        <mxCell id="G6OJdMRR6eW8WAvbaNXZ-7" value="Park your bike" style="whiteSpace=wrap;html=1;" vertex="1" parent="1">
          <mxGeometry x="140" y="650" width="120" height="60" as="geometry" />
        </mxCell>
        <mxCell id="G6OJdMRR6eW8WAvbaNXZ-8" value="" style="edgeStyle=none;orthogonalLoop=1;jettySize=auto;html=1;rounded=0;" edge="1" parent="1">
          <mxGeometry width="100" relative="1" as="geometry">
            <mxPoint x="199.5" y="710" as="sourcePoint" />
            <mxPoint x="199.5" y="770" as="targetPoint" />
            <Array as="points" />
          </mxGeometry>
        </mxCell>
        <mxCell id="G6OJdMRR6eW8WAvbaNXZ-9" value="Check the room number" style="whiteSpace=wrap;html=1;" vertex="1" parent="1">
          <mxGeometry x="140" y="770" width="120" height="60" as="geometry" />
        </mxCell>
        <mxCell id="G6OJdMRR6eW8WAvbaNXZ-10" value="" style="edgeStyle=segmentEdgeStyle;endArrow=classic;html=1;curved=0;rounded=0;endSize=8;startSize=8;sourcePerimeterSpacing=0;targetPerimeterSpacing=0;entryX=1;entryY=0.5;entryDx=0;entryDy=0;exitX=0.5;exitY=1;exitDx=0;exitDy=0;" edge="1" parent="1" source="G6OJdMRR6eW8WAvbaNXZ-2" target="G6OJdMRR6eW8WAvbaNXZ-9">
          <mxGeometry width="100" relative="1" as="geometry">
            <mxPoint x="400" y="750" as="sourcePoint" />
            <mxPoint x="500" y="790" as="targetPoint" />
            <Array as="points">
              <mxPoint x="460" y="800" />
            </Array>
          </mxGeometry>
        </mxCell>
        <mxCell id="G6OJdMRR6eW8WAvbaNXZ-11" value="" style="edgeStyle=none;orthogonalLoop=1;jettySize=auto;html=1;rounded=0;" edge="1" parent="1">
          <mxGeometry width="100" relative="1" as="geometry">
            <mxPoint x="199.5" y="830" as="sourcePoint" />
            <mxPoint x="199.5" y="890" as="targetPoint" />
            <Array as="points" />
          </mxGeometry>
        </mxCell>
        <mxCell id="G6OJdMRR6eW8WAvbaNXZ-12" value="Come in" style="whiteSpace=wrap;html=1;" vertex="1" parent="1">
          <mxGeometry x="140" y="890" width="120" height="60" as="geometry" />
        </mxCell>
        <mxCell id="G6OJdMRR6eW8WAvbaNXZ-13" value="" style="edgeStyle=none;orthogonalLoop=1;jettySize=auto;html=1;rounded=0;" edge="1" parent="1">
          <mxGeometry width="100" relative="1" as="geometry">
            <mxPoint x="199.5" y="950" as="sourcePoint" />
            <mxPoint x="199.5" y="1010" as="targetPoint" />
            <Array as="points" />
          </mxGeometry>
        </mxCell>
        <mxCell id="G6OJdMRR6eW8WAvbaNXZ-14" value="" style="ellipse;whiteSpace=wrap;html=1;" vertex="1" parent="1">
          <mxGeometry x="160" y="1010" width="80" height="80" as="geometry" />
        </mxCell>
        <mxCell id="G6OJdMRR6eW8WAvbaNXZ-15" value="End means you finish the task&lt;br&gt;" style="text;html=1;align=center;verticalAlign=middle;resizable=0;points=[];autosize=1;strokeColor=none;fillColor=none;" vertex="1" parent="1">
          <mxGeometry x="350" y="1035" width="180" height="30" as="geometry" />
        </mxCell>
      </root>
    </mxGraphModel>
  </diagram>
</mxfile>
